<svg xmlns="http://www.w3.org/2000/svg"  viewBox="0 0 64 64" width="64px" height="64px"><path d="M 26.644531 11 C 24.051531 11 17.743266 14.115234 13.697266 14.115234 L 8.9863281 14.115234 L 1 36.111328 L 4.8320312 38.007812 L 20.757812 54.664062 C 21.595813 55.550063 24.397359 58.635828 27.443359 57.423828 C 30.126359 56.356828 29.984375 54.058594 29.984375 54.058594 C 29.984375 54.058594 32.475203 56.928516 36.033203 55.353516 C 38.871203 54.097516 38.429688 51.558594 38.429688 51.558594 C 38.429688 51.558594 41.676125 54.395266 44.953125 52.947266 C 47.758125 51.708266 47.845703 48.595703 47.845703 48.595703 C 47.845703 48.595703 50.903109 50.58625 53.787109 48.40625 C 56.329109 46.48525 55.110094 42.901797 54.371094 41.966797 L 53.369141 40.716797 C 52.988141 40.293797 52.588594 39.879609 52.183594 39.474609 C 50.328594 37.619609 40.164063 26.691656 37.289062 23.597656 L 31.835938 24.376953 C 29.448937 26.911953 27.018469 28.195312 24.605469 28.195312 C 19.989469 28.195312 16.845703 22.015625 16.845703 22.015625 L 28.509766 11.699219 C 28.509766 11.699219 27.464531 11 26.644531 11 z M 38.070312 11 C 36.614312 11 29.14775 13.713547 28.21875 14.560547 C 27.29075 15.408547 19.373047 22.425781 19.373047 22.425781 C 19.373047 22.425781 23.529781 30.735781 30.800781 22.425781 L 38.070312 21.386719 L 59.560547 42.224609 L 63 38.007812 L 59.884766 15.154297 C 59.884766 15.154297 54.5375 15.412219 52.4375 15.449219 C 50.1365 15.489219 39.526312 11 38.070312 11 z"/></svg>