<?xml version="1.0" encoding="UTF-8"?>
<svg id="Layer_1" data-name="Layer 1" xmlns="http://www.w3.org/2000/svg" viewBox="0 0 320.36 320.36">
  <defs>
    <style>
      .cls-1 {
        fill: #61c661;
      }

      .cls-1, .cls-2, .cls-3, .cls-4, .cls-5, .cls-6, .cls-7, .cls-8, .cls-9, .cls-10, .cls-11, .cls-12, .cls-13, .cls-14, .cls-15, .cls-16, .cls-17, .cls-18, .cls-19, .cls-20, .cls-21 {
        stroke-width: 0px;
      }

      .cls-2 {
        fill: #58c258;
      }

      .cls-3 {
        fill: #00a200;
      }

      .cls-4 {
        fill: #fd0000;
      }

      .cls-5 {
        fill: #fdfdfd;
      }

      .cls-6 {
        fill: #8ad48a;
      }

      .cls-7 {
        fill: #74cc74;
      }

      .cls-8 {
        fill: #99da99;
      }

      .cls-9 {
        fill: #b2e3b2;
      }

      .cls-10 {
        fill: #a9dfa9;
      }

      .cls-11 {
        fill: #000;
      }

      .cls-12 {
        fill: #abe0ab;
      }

      .cls-13 {
        fill: #a6dea6;
      }

      .cls-14 {
        fill: #4abd4a;
      }

      .cls-15 {
        fill: #7ccf7c;
      }

      .cls-16 {
        fill: #98d998;
      }

      .cls-17 {
        fill: #fefefe;
      }

      .cls-18 {
        fill: #53c053;
      }

      .cls-19 {
        fill: #a4dea4;
      }

      .cls-20 {
        fill: #54c154;
      }

      .cls-21 {
        fill: #40b940;
      }
    </style>
  </defs>
  <path class="cls-11" d="M320.36,160.14c.05,88.41-71.66,160.17-160.11,160.22C71.79,320.41-.03,248.62,0,160.16.03,71.71,71.73.01,160.17,0c88.43-.01,160.14,71.68,160.19,160.14Z"/>
  <path class="cls-17" d="M160.31,1.77c87.81.16,158.37,71.28,158.27,158.54-.11,87.84-71.28,158.37-158.52,158.27C72.14,318.47,1.68,247.22,1.78,160.05,1.89,72.17,73.12,1.73,160.31,1.77Z"/>
  <path class="cls-11" d="M160.25,317.24c-86.47-.04-156.52-70.1-156.67-156.69C3.42,74.46,73.54,4.05,159.87,3.84c86.58-.21,156.95,69.81,157.13,156.33.18,86.73-69.78,156.83-156.75,157.07Z"/>
  <path class="cls-4" d="M315.25,160.57c-.19,86.16-69.91,155.15-155.37,154.89-85.96-.27-154.77-69.99-154.5-155.37C5.66,74.33,75.1,5.58,160.3,5.62c86.17.04,154.88,69.78,154.95,154.95Z"/>
  <path class="cls-11" d="M160.24,37.44c67.87-.08,123.15,55.1,123.16,122.96,0,68.11-55.07,123.26-123.11,123.25-68.04,0-123.15-55.18-123.1-123.26.05-67.85,55.1-122.87,123.05-122.95Z"/>
  <path class="cls-5" d="M38.96,160.52c.07-66.7,53.9-121.19,121.18-121.3,66.85-.11,121.4,53.9,121.48,121.22.08,66.81-53.88,121.3-121.16,121.42-66.76.12-121.39-53.84-121.5-121.34Z"/>
  <path class="cls-3" d="M258.46,131.04c-7.13,16.8-16.61,32.05-29.73,44.87-7.11,6.95-15.24,12.52-23.89,17.36-.5.28-1.07.48-1.61,1.18,6.41-.51,12.58-.34,18.73.42,2.42.27,4.82.69,7.21,1.2,10.37,2.25,20.27,5.76,29.56,10.94,1.63.91,2.63,2.08,2.62,4.07-.01,1.95-1.04,3.09-2.61,3.96-8.95,4.93-18.42,8.46-28.4,10.64-7.89,1.73-15.86,2.54-23.94,2.03-3.88-.25-7.69-.95-11.49-1.73-.22-.05-.45-.2-.67,0-.04.41.28.64.49.92,4.8,6.24,7.35,13.31,7.69,21.17.17,3.88-2.48,5.98-6.11,4.66-12.67-4.61-23.1-12.22-30.76-23.43-.2-.3-.41-.58-.63-.87-.04-.05-.14-.06-.21-.09-.23.1-.21.31-.21.51,0,9.2,0,18.4.04,27.6,0,2.18-.72,3.71-2.69,4.93-2.04,1.27-5.48-1.09-5.63-3.15-.05-.72-.12-1.44-.12-2.15,0-9.08.01-18.16.02-27.24,0-.15-.04-.3-.07-.53-.61.13-.73.64-.98,1-7.73,11.27-18.2,18.93-31,23.49-3.29,1.17-5.98-.88-5.89-4.39.16-6.07,1.79-11.74,4.72-17.04,1.02-1.85,2.26-3.56,3.62-5.33-.66-.21-1.14.01-1.61.12-8.6,1.93-17.28,2.18-25.99,1.01-12.68-1.7-24.66-5.58-35.97-11.57-.53-.28-1.04-.6-1.57-.87-2.85-1.42-2.76-5.92-.04-7.43,5.25-2.93,10.7-5.37,16.37-7.36,10.53-3.7,21.35-5.8,32.54-5.79,2.3,0,4.6,0,6.9,0-.08-.38-.57-.44-.93-.64-11.07-6.12-21.11-13.54-29.57-23.03-9.61-10.78-17.07-22.93-23.04-36.03-.51-1.13-.98-2.27-1.46-3.41-.18-.39-.22-.85-.49-1.2-.68-1.75-1.42-3.48-2.03-5.25-1.37-4.03,1.04-6.86,5.23-6.09,6.9,1.27,13.53,3.46,20.01,6.13,16.79,6.91,31.22,17.19,43.59,30.44,3.36,3.6,6.6,7.29,9.71,11.1.24.3.43.68.93.78-.55-2.55-1.12-5.03-1.62-7.53-2.57-12.88-3.14-25.84-1.55-38.89.26-2.1.58-4.19.87-6.29.35-2.09.68-4.19,1.21-6.24,3.69-16.34,9.66-31.77,18.35-46.12.46-.76.95-1.49,1.77-1.9,1.25-.73,2.54-.82,3.86-.23,1.13.4,1.77,1.31,2.36,2.28,4.87,7.97,8.8,16.39,12.07,25.13,5.68,15.21,9.03,30.88,9.15,47.17.07,9.19-.91,18.27-2.88,27.25-.19.86-.36,1.72-.53,2.58-.27.66-.31,1.38-.49,2.06-.12.46.03.62.46.32,3.98-4.8,8.09-9.48,12.45-13.95,12.35-12.67,26.73-22.26,43.17-28.75,5.69-2.25,11.52-4.07,17.54-5.25,1.1-.22,2.22-.4,3.32-.03,2.22.74,3.26,2.9,2.55,5.47-.56,2-1.36,3.92-2.18,5.83-.27.36-.3.81-.49,1.2Z"/>
  <path class="cls-19" d="M229.17,196.06c-2.43-.25-4.83-.68-7.21-1.2,2.47-.01,4.87.44,7.21,1.2Z"/>
  <path class="cls-13" d="M138,107.99c-.28,2.11-.62,4.2-1.21,6.24.09-2.14.42-4.24,1.21-6.24Z"/>
  <path class="cls-15" d="M161.99,59.74c-1.32-.39-2.6-.22-3.86.23,1.08-.93,2.85-1.04,3.86-.23Z"/>
  <path class="cls-6" d="M182.12,166.52c-.02.35-.22.69-.53.62-.43-.1-.22-.53-.13-.78.27-.73.15-1.57.69-2.21.17.54-.16,1.01-.21,1.52-.03.27-.46.71.18.86Z"/>
  <path class="cls-20" d="M258.46,131.04c-.05-.49.06-.91.49-1.2.02.48-.18.86-.49,1.2Z"/>
  <path class="cls-18" d="M61.65,129.83c.44.29.55.71.49,1.2-.31-.34-.51-.73-.49-1.2Z"/>
  <path class="cls-17" d="M159.83,197.47c-4.28-8.33-7.89-16.93-10.63-25.9-4.14-13.57-6.32-27.4-5.62-41.61.8-16.19,4.89-31.6,11.2-46.48,1.51-3.57,3.17-7.07,4.99-10.49.14-.26.15-.7.58-.65.31.04.34.4.47.65,5.96,11.43,10.42,23.41,13.27,35.98,2.61,11.5,3.64,23.13,2.7,34.89-.71,8.91-2.44,17.64-4.97,26.22-2.79,9.49-6.56,18.59-11.07,27.39-.31.51-.63.52-.93,0Z"/>
  <path class="cls-17" d="M169.66,199.34c-.1-.28.05-.46.18-.67,9.37-15.14,19.81-29.44,32.54-41.97,12.03-11.84,25.97-20.63,41.91-26.22,1.69-.59,3.41-1.13,5.11-1.7.22-.07.46-.26.67-.08.28.25.01.51-.09.75-3.53,7.98-7.74,15.58-12.55,22.87-10.97,16.65-25.84,28.67-43.66,37.3-7.52,3.64-15.22,6.82-23.09,9.6-.32.11-.65.34-1.01.13Z"/>
  <path class="cls-17" d="M150.9,199.55c-2.4-.88-4.72-1.7-7.03-2.57-10.3-3.89-20.19-8.6-29.6-14.35-14.08-8.61-24.96-20.35-33.65-34.25-3.78-6.04-7.09-12.33-9.96-18.85-.11-.25-.37-.54-.21-.77.24-.33.57-.05.87.05,2.84.88,5.6,2,8.4,3.01,8.4,3.05,16.11,7.36,23.45,12.37,9.04,6.18,16.8,13.78,23.98,22,8.78,10.06,16.46,20.91,23.45,32.27.16.26.43.49.29,1.09Z"/>
  <path class="cls-17" d="M188.61,215.5c-5.8-1.83-11.33-4.3-16.78-6.97-.15-.17-.14-.34-.02-.52,1.2-.32,2.42-.56,3.61-.92,12.38-2.87,24.89-4.71,37.63-4.45,7.63.16,15.08,1.56,22.38,3.76,3.86,1.17,7.66,2.52,11.35,4.15.26.11.73.07.67.53-.04.31-.41.33-.66.44-11.31,4.87-23.06,7.79-35.42,7.93-5.5.06-10.91-.72-16.24-2.08-.81-.21-1.62-.44-2.42-.66-1.36-.39-2.7-.87-4.08-1.21Z"/>
  <path class="cls-17" d="M141.33,206.16c2.29.55,4.58,1.09,6.86,1.65.31.08.83-.11.87.39.02.36-.44.4-.71.54-.17.1-.36.18-.54.26-.49.22-1.01.38-1.44.72h0c-.74.28-1.43.66-2.15.98-3.19,1.57-6.52,2.82-9.84,4.07-.64.26-1.3.44-1.94.68h0c-.53.25-1.13.29-1.67.5-6.56,1.99-13.24,3.34-20.13,3.45-5.94.1-11.8-.57-17.61-1.81-6.58-1.41-12.95-3.47-19.13-6.12-.28-.12-.71-.15-.71-.53,0-.41.47-.37.73-.48,7.17-3.11,14.61-5.35,22.3-6.74,3.44-.59,6.89-1.07,10.39-1.09,4.42-.02,8.85-.15,13.25.28,2.36.23,4.74.36,7.07.8,2.64.4,5.27.8,7.91,1.2,2.18.28,4.34.73,6.48,1.22Z"/>
  <path class="cls-17" d="M152.36,217.15c-2.35,5.2-5.59,9.81-9.51,13.93-4.28,4.5-9.29,8.02-14.78,10.89-.1.05-.22.05-.43.1.03-1.18.52-2.18.92-3.19,1.85-4.72,4.77-8.65,8.82-11.71,4.58-3.47,9.27-6.78,14.03-10.01.32.01.63-.8.95,0Z"/>
  <path class="cls-17" d="M168.69,216.94c5.58,3.55,11,7.35,16.1,11.55,3.75,3.09,6.17,7.16,7.79,11.72.15.41-.04.9.32,1.24.13.12.17.26.06.4-.15.18-.33.16-.52.06h0c-.29-.22-.68-.24-.95-.49-9.46-5.1-16.89-12.25-22.02-21.74-.19-.35-.35-.71-.53-1.07-.17-.32-.22-.69-.48-.96h0c-.11-.3-.34-.63.23-.71Z"/>
  <path class="cls-2" d="M126.94,203.74c-1.52.12-3.01-.23-4.51-.37-5.72-.55-11.44-.87-17.19-.53-2.7.16-5.4.42-8.07.9-.31.05-.63.01-.94.02,1.67-.76,3.49-.7,5.24-.92,4.61-.57,9.25-.44,13.88-.3,3.66.11,7.32.48,10.95.94.24.03.48.03.63.26Z"/>
  <path class="cls-14" d="M141.33,206.16c-2.19-.25-4.35-.67-6.48-1.22,2.23.04,4.38.49,6.48,1.22Z"/>
  <path class="cls-10" d="M188.61,215.5c1.45.11,2.78.59,4.08,1.21-1.43-.16-2.78-.6-4.08-1.21Z"/>
  <path class="cls-12" d="M175.41,207.08c-1.12.62-2.36.78-3.59.97-.06-.05-.08-.11-.06-.16.02-.05.04-.08.06-.08,1.21-.19,2.34-.76,3.59-.73Z"/>
  <path class="cls-16" d="M144.23,210.71c.62-.54,1.32-.91,2.15-.98-.63.51-1.32.89-2.15.98Z"/>
  <path class="cls-1" d="M132.44,215.47c.55-.5,1.24-.6,1.94-.68-.54.54-1.23.64-1.94.68Z"/>
  <path class="cls-8" d="M152.36,217.15c-.32-.46-.63.22-.95,0,.24-.2.48-.41.73-.6.16-.12.41-.24.52-.03.13.25.07.54-.3.62Z"/>
  <path class="cls-9" d="M168.69,216.94c-.31.16-.14.47-.23.71-.3-.3-.69-.66-.39-1.05.19-.25.53,0,.62.35Z"/>
  <path class="cls-21" d="M159.83,197.47c.31.29.62.29.93,0,.05.37-.09.65-.47.64-.38,0-.52-.28-.46-.65Z"/>
  <path class="cls-16" d="M146.38,209.73c.35-.51.84-.72,1.44-.72-.39.42-.88.63-1.44.72Z"/>
  <path class="cls-1" d="M130.78,215.97c.5-.36,1.04-.56,1.67-.5-.49.39-1.03.6-1.67.5Z"/>
  <path class="cls-7" d="M171.82,207.82c0,.08,0,.16,0,.24,0,.16,0,.31.01.47-.29.04-.48-.12-.5-.37-.02-.31.22-.37.49-.34Z"/>
  <path class="cls-6" d="M192.44,241.91c.25-.05.45-.17.46-.46.38.14.35.44.16.65-.26.29-.49.12-.62-.19Z"/>
  <path class="cls-9" d="M168.46,217.65c.42.19.54.53.48.96-.3-.25-.47-.56-.48-.96Z"/>
  <path class="cls-6" d="M191.49,241.42c.42-.04.72.15.95.49-.42.04-.74-.13-.95-.49Z"/>
</svg>