<svg xmlns="http://www.w3.org/2000/svg"  viewBox="0 0 50 50" width="50px" height="50px"><path d="M 25 2 C 23.894531 2 23 2.894531 23 4 L 23 7.210938 C 21.433594 6.199219 19.53125 4.785156 17.21875 4.25 C 16.316406 4.039063 15.40625 3.980469 14.519531 4 C 13.636719 4.019531 12.78125 4.117188 11.980469 4.210938 C 11.265625 4.300781 10.613281 4.371094 10.019531 4.417969 L 10 4.375 L 9.980469 4.421875 C 9.253906 4.476563 8.628906 4.492188 8.226563 4.398438 C 7.6875 4.273438 7.152344 4.609375 7.023438 5.144531 C 6.898438 5.683594 7.234375 6.222656 7.773438 6.347656 C 8.214844 6.449219 8.671875 6.476563 9.132813 6.480469 L 1.921875 23.996094 L 2.070313 24.371094 C 2.070313 24.371094 4.332031 30 10 30 C 15.667969 30 17.925781 24.371094 17.925781 24.371094 L 18.078125 23.996094 L 10.816406 6.359375 C 11.28125 6.304688 11.738281 6.253906 12.21875 6.195313 C 13.785156 6.007813 15.390625 5.878906 16.765625 6.195313 C 18.644531 6.632813 20.511719 8.027344 22.269531 9.125 C 22.488281 9.257813 22.75 9.304688 23 9.253906 L 23 42 L 27 42 L 27 10.371094 C 27.128906 10.410156 27.265625 10.425781 27.398438 10.410156 C 29.496094 10.210938 31.847656 9.75 33.765625 10.199219 C 35.175781 10.523438 36.5625 11.285156 37.886719 12.0625 C 38.390625 12.363281 38.875 12.648438 39.359375 12.925781 L 31.921875 30.996094 L 32.074219 31.371094 C 32.074219 31.371094 34.332031 37 40 37 C 45.667969 37 47.925781 31.371094 47.925781 31.371094 L 48.078125 30.996094 L 40.964844 13.710938 C 41.230469 13.8125 41.496094 13.910156 41.773438 13.972656 C 42.3125 14.101563 42.847656 13.765625 42.972656 13.226563 C 43.101563 12.6875 42.765625 12.152344 42.226563 12.027344 C 41.441406 11.84375 40.257813 11.140625 38.90625 10.34375 C 37.550781 9.542969 36 8.660156 34.21875 8.25 C 32.957031 7.953125 31.683594 7.953125 30.484375 8.046875 C 29.289063 8.140625 28.164063 8.328125 27.207031 8.421875 C 27.136719 8.425781 27.066406 8.441406 27 8.460938 L 27 4 C 27 2.894531 26.105469 2 25 2 Z M 10 9.625 L 15.886719 23.917969 C 15.878906 23.929688 15.847656 23.984375 15.84375 24 L 4.15625 24 C 4.152344 23.984375 4.121094 23.929688 4.117188 23.917969 Z M 40 16.625 L 45.886719 30.917969 C 45.878906 30.929688 45.847656 30.984375 45.84375 31 L 34.15625 31 C 34.152344 30.984375 34.121094 30.929688 34.113281 30.917969 Z M 16 44 C 14.34375 44 13 45.34375 13 47 L 13 48 L 37 48 L 37 47 C 37 45.34375 35.65625 44 34 44 Z"/></svg>