<?xml version="1.0" encoding="UTF-8"?>
<svg id="Layer_1" data-name="Layer 1" xmlns="http://www.w3.org/2000/svg" viewBox="0 0 320.36 320.36">
  <defs>
    <style>
      .cls-1 {
        fill: #009245;
        stroke: #006837;
        stroke-miterlimit: 10;
        stroke-width: 6px;
      }

      .cls-2 {
        fill: #fd0700;
      }

      .cls-2, .cls-3 {
        stroke-width: 0px;
      }

      .cls-3 {
        fill: #000;
      }
    </style>
  </defs>
  <path class="cls-3" d="M160.17,0C71.73.01.03,71.71,0,160.16c-.03,88.46,71.79,160.25,160.25,160.2,88.45-.05,160.16-71.81,160.11-160.22C320.31,71.68,248.6-.01,160.17,0ZM160.06,318.58C72.14,318.47,1.68,247.22,1.78,160.05,1.89,72.17,73.12,1.73,160.31,1.77c87.81.16,158.37,71.28,158.27,158.54-.11,87.84-71.28,158.37-158.52,158.27Z"/>
  <path class="cls-2" d="M160.39,5.37C75.19,5.33,5.75,74.08,5.47,159.84c-.27,85.38,68.54,155.1,154.5,155.37,85.46.26,155.18-68.73,155.37-154.89-.07-85.17-68.78-154.91-154.95-154.95ZM160.38,283.4c-68.04,0-123.15-55.18-123.1-123.26.05-67.85,55.1-122.87,123.05-122.95,67.87-.08,123.15,55.1,123.16,122.96,0,68.11-55.07,123.26-123.11,123.25Z"/>
  <rect class="cls-1" x="156.48" y="204.93" width="5.23" height="53.05"/>
  <path class="cls-1" d="M181.62,133.24c0,26.53-8.29,50.95-22.19,70.31-13.81-19.34-22.03-43.69-22.03-70.14s8.27-50.94,22.15-70.31c13.83,19.32,22.07,43.68,22.07,70.14Z"/>
  <path class="cls-1" d="M122.04,149.69c17.04,16.08,28.28,35.58,33.26,55.2-19.81-3.89-39.85-13.99-56.83-30.02-17.04-16.08-28.28-35.57-33.29-55.18,19.81,3.87,39.87,13.96,56.85,30Z"/>
  <path class="cls-1" d="M105.97,192.37c18.13,1.52,34.47,7.34,47.11,15.84-13.79,6.23-30.78,9.21-48.85,7.69-18.13-1.52-34.46-7.33-47.11-15.82,13.78-6.25,30.77-9.23,48.85-7.71Z"/>
  <path class="cls-1" d="M130.52,217.48c7.61-5.07,16.39-7.05,24.94-6.25-2.57,8.16-7.78,15.47-15.37,20.52s-16.39,7.05-24.93,6.27c2.56-8.16,7.77-15.48,15.36-20.53Z"/>
  <path class="cls-1" d="M197.63,149.65c-17.49,15.59-29.28,34.76-34.82,54.23,19.91-3.33,40.23-12.85,57.67-28.39,17.49-15.59,29.28-34.75,34.84-54.21-19.91,3.3-40.25,12.82-57.69,28.37Z"/>
  <path class="cls-1" d="M212.47,192.77c-18.17,1.01-34.66,6.35-47.54,14.49,13.61,6.62,30.5,10.08,48.61,9.07,18.17-1.01,34.66-6.34,47.54-14.47-13.6-6.64-30.5-10.1-48.61-9.1Z"/>
  <path class="cls-1" d="M187.22,217.17c-7.46-5.28-16.19-7.51-24.75-6.96,2.34,8.23,7.34,15.68,14.77,20.95,7.46,5.28,16.18,7.52,24.74,6.97-2.33-8.23-7.33-15.7-14.77-20.96Z"/>
</svg>