<?xml version="1.0" encoding="UTF-8"?>
<svg id="Layer_1" data-name="Layer 1" xmlns="http://www.w3.org/2000/svg" viewBox="0 0 320.36 320.36">
  <defs>
    <style>
      .cls-1 {
        fill: #fd0700;
      }

      .cls-1, .cls-2 {
        stroke-width: 0px;
      }

      .cls-2 {
        fill: #000;
      }
    </style>
  </defs>
  <g>
    <path class="cls-2" d="M160.17,0C71.73.01.03,71.71,0,160.16c-.03,88.46,71.79,160.25,160.25,160.2,88.45-.05,160.16-71.81,160.11-160.22C320.31,71.68,248.6-.01,160.17,0ZM160.06,318.58C72.14,318.47,1.68,247.22,1.78,160.05,1.89,72.17,73.12,1.73,160.31,1.77c87.81.16,158.37,71.28,158.27,158.54-.11,87.84-71.28,158.37-158.52,158.27Z"/>
    <path class="cls-1" d="M160.17,5.26C74.97,5.22,5.53,73.97,5.25,159.73c-.27,85.38,68.54,155.1,154.5,155.37,85.46.26,155.18-68.73,155.37-154.89-.07-85.17-68.78-154.91-154.95-154.95ZM160.16,283.29c-68.04,0-123.15-55.18-123.1-123.26.05-67.85,55.1-122.87,123.05-122.95,67.87-.08,123.15,55.1,123.16,122.96,0,68.11-55.07,123.26-123.11,123.25Z"/>
  </g>
  <g>
    <g>
      <rect class="cls-2" x="158.15" y="205.08" width="5.23" height="53.05"/>
      <rect class="cls-2" x="155.15" y="202.08" width="11.23" height="59.05"/>
    </g>
    <path class="cls-2" d="M160.5,207.84l-2.43-3.41c-14.78-20.7-22.59-45.56-22.59-71.89s7.85-51.32,22.71-72.06l2.44-3.4,2.44,3.41c14.81,20.68,22.64,45.54,22.64,71.89s-7.87,51.33-22.75,72.06l-2.44,3.4ZM160.62,67.52c-12.54,18.98-19.15,41.36-19.15,65.02s6.57,45.91,19.04,64.85c12.57-18.97,19.18-41.36,19.18-65.02s-6.58-45.93-19.08-64.85Z"/>
    <path class="cls-2" d="M160.45,207.88l-4.65-.92c-21.23-4.17-41.4-14.82-58.31-30.78-16.96-16.01-28.76-35.59-34.13-56.62l-1.17-4.59,4.65.91c21.24,4.14,41.41,14.78,58.34,30.76h0c16.97,16.02,28.76,35.6,34.11,56.64l1.17,4.6ZM70.5,122.83c5.57,18.12,16.26,34.97,31.1,48.99,14.8,13.97,32.18,23.65,50.53,28.19-5.56-18.13-16.23-34.99-31.08-49.01h0c-14.81-13.98-32.2-23.66-50.55-28.17Z"/>
    <path class="cls-2" d="M114.7,218.43c-3.19,0-6.4-.14-9.64-.41-18.12-1.52-34.9-7.17-48.53-16.32l-4.47-3,4.9-2.22c14.85-6.73,32.26-9.49,50.34-7.96h0c18.12,1.52,34.9,7.17,48.53,16.34l4.47,3.01-4.91,2.22c-12.2,5.51-26.11,8.35-40.69,8.35ZM64.75,199.76c11.84,6.8,25.82,11.02,40.81,12.28,14.92,1.26,29.33-.56,42.04-5.25-11.83-6.81-25.81-11.04-40.8-12.3h0c-14.94-1.26-29.35.56-42.04,5.26Z"/>
    <path class="cls-2" d="M119.92,240.32c-1.31,0-2.63-.06-3.96-.18l-3.7-.34,1.11-3.54c2.88-9.18,8.6-16.84,16.56-22.13h0c7.97-5.31,17.27-7.64,26.88-6.74l3.7.35-1.12,3.54c-2.89,9.18-8.62,16.82-16.56,22.12-6.86,4.57-14.71,6.94-22.9,6.94ZM133.26,219.11c-5.69,3.79-10.05,9-12.76,15.2,6.8-.11,13.3-2.13,19.01-5.93,5.69-3.79,10.05-8.99,12.77-15.19-6.8.1-13.31,2.12-19.01,5.92h0Z"/>
    <path class="cls-2" d="M159.7,206.75l1.3-4.56c5.95-20.88,18.29-40.12,35.71-55.65h0c17.38-15.49,37.84-25.55,59.19-29.09l4.68-.78-1.3,4.56c-5.97,20.87-18.32,40.1-35.73,55.62-17.36,15.48-37.82,25.55-59.17,29.11l-4.68.78ZM200.7,151.02h0c-15.24,13.59-26.39,30.14-32.47,48.1,18.47-4.01,36.12-13.2,51.32-26.74,15.24-13.58,26.4-30.12,32.48-48.08-18.47,3.99-36.13,13.17-51.33,26.72Z"/>
    <path class="cls-2" d="M208.37,218.65c-15.76,0-30.75-3.26-43.67-9.55l-4.84-2.36,4.55-2.88c13.88-8.78,30.82-13.95,48.98-14.95h0c18.11-1.01,35.44,2.24,50.09,9.4l4.84,2.36-4.55,2.87c-13.89,8.76-30.83,13.92-48.98,14.93-2.15.12-4.29.18-6.42.18ZM172.58,206.03c12.57,5.05,26.91,7.27,41.87,6.45,15.01-.83,29.11-4.66,41.14-11.12-12.56-5.06-26.91-7.29-41.88-6.46h0c-15.02.83-29.12,4.66-41.14,11.13Z"/>
    <path class="cls-2" d="M200.51,240.35c-8.63,0-16.85-2.6-23.92-7.61-7.79-5.52-13.3-13.33-15.93-22.58l-1.02-3.57,3.71-.24c9.64-.62,18.86,1.97,26.68,7.51,7.8,5.52,13.3,13.33,15.92,22.6l1.01,3.57-3.71.24c-.92.06-1.84.09-2.75.09ZM167.73,212.3c2.54,6.28,6.75,11.6,12.33,15.55,5.59,3.96,12.04,6.16,18.83,6.47-2.54-6.28-6.74-11.61-12.32-15.56h0c-5.6-3.96-12.04-6.16-18.84-6.46Z"/>
  </g>
</svg>